<svg xmlns="http://www.w3.org/2000/svg" viewBox="0 0 42.16 47.68"><defs><style>.cls-1{fill:#010101;}</style></defs><title>free-image</title><g id="Camada_2" data-name="Camada 2"><g id="Camada_1-2" data-name="Camada 1"><path class="cls-1" d="M42,28a6.76,6.76,0,0,0-6.49-4.92h-9V17.35a5.59,5.59,0,0,0-5.58-5.58H18.51A1.52,1.52,0,0,0,17,13.29v5.43a11.25,11.25,0,0,1-2.74,7.14l-.8.81V25.56A1.52,1.52,0,0,0,11.93,24H1.52A1.52,1.52,0,0,0,0,25.56v20.6a1.52,1.52,0,0,0,1.52,1.52h10.4a1.52,1.52,0,0,0,1.52-1.52V45.7H34.13c3.19,0,5.27-1.5,5.71-4.06L42,30.77A5.29,5.29,0,0,0,42,28ZM10.4,44.64H3V27.08H10.4ZM39,30.14,36.85,41.08c-.06.39-.27,1.57-2.71,1.57H13.44V31l3-3.05.08-.09A14.28,14.28,0,0,0,20,18.72V14.81h.86a2.54,2.54,0,0,1,2.53,2.54V24.6A1.52,1.52,0,0,0,25,26.12H35.46A3.71,3.71,0,0,1,39,28.85,2.54,2.54,0,0,1,39,30.14Z"/><path class="cls-1" d="M21.81,9.38a1.51,1.51,0,0,0,1.52-1.52V1.52a1.52,1.52,0,0,0-3,0V7.86A1.52,1.52,0,0,0,21.81,9.38Z"/><path class="cls-1" d="M6,6.1l5.48,4a1.55,1.55,0,0,0,.89.29,1.53,1.53,0,0,0,.89-2.76L7.79,3.64A1.52,1.52,0,0,0,6,6.1Z"/><path class="cls-1" d="M30.79,10.35a1.53,1.53,0,0,0,.89-.29l5.43-4a1.52,1.52,0,1,0-1.79-2.46l-5.43,4a1.52,1.52,0,0,0,.9,2.75Z"/></g></g></svg>