<svg xmlns="http://www.w3.org/2000/svg" xmlns:xlink="http://www.w3.org/1999/xlink" viewBox="0 0 92.37 61.44"><defs><style>.cls-1{fill:none;}.cls-2{fill:#79b032;}.cls-3{fill:#fff;}.cls-4{clip-path:url(#clip-path);}</style><clipPath id="clip-path"><rect id="SVGID" class="cls-1" x="15.2" y="40.19" width="16.57" height="14.5"/></clipPath></defs><title>group-plan</title><g id="Camada_2" data-name="Camada 2"><g id="Camada_2-2" data-name="Camada 2"><path d="M16,13.49H2.1A2.11,2.11,0,0,0,0,15.59V42.47a2.11,2.11,0,0,0,2.1,2.1H16a2.11,2.11,0,0,0,2.1-2.1V15.59a2.11,2.11,0,0,0-2.1-2.1ZM6.81,15h4.43a.25.25,0,0,1,0,.5H6.81a.26.26,0,0,1-.26-.25A.25.25,0,0,1,6.81,15ZM9,43.52a1.05,1.05,0,1,1,1-1.05,1,1,0,0,1-1,1.05Zm7.56-2.84H1.46V16.82H16.59Z"/><path d="M29.88,40.11H85.77A2.1,2.1,0,0,0,87.86,38V2.1A2.09,2.09,0,0,0,85.77,0H29.88a2.1,2.1,0,0,0-2.09,2.1V38a2.1,2.1,0,0,0,2.09,2.09Zm-.3-38a.3.3,0,0,1,.3-.3H85.77a.3.3,0,0,1,.3.3V38a.3.3,0,0,1-.3.3H29.88a.3.3,0,0,1-.3-.3ZM92.37,41.72v1.67a.8.8,0,0,1-.8.81H24.09a.8.8,0,0,1-.8-.81V41.72H51.66a1.13,1.13,0,0,0,1.08.8H62.92a1.13,1.13,0,0,0,1.08-.8Z"/><circle class="cls-2" cx="23.49" cy="47.44" r="14"/><path class="cls-3" d="M26.3,43a2.82,2.82,0,1,1-.82-2,2.78,2.78,0,0,1,.82,2Z"/><path class="cls-3" d="M31,44.06a1.78,1.78,0,1,1-1.78-1.78A1.77,1.77,0,0,1,31,44.06Z"/><path class="cls-3" d="M19.57,44.06a1.78,1.78,0,1,1-1.78-1.78,1.78,1.78,0,0,1,1.78,1.78Z"/><g class="cls-4"><path class="cls-3" d="M19.54,47.44a2.88,2.88,0,0,0-2.14-.5,2.2,2.2,0,0,0-2.2,2.19v3.53a1,1,0,0,0,1,1c2.26,0,2,0,2-.1,0-2.5-.3-4.34,1.39-6.07Z"/></g><g class="cls-4"><path class="cls-3" d="M24.26,47a4.82,4.82,0,0,0-3.71.87c-1.77,1.43-1.43,3.34-1.43,5.68a1.14,1.14,0,0,0,1.13,1.14c6.83,0,7.1.22,7.51-.68.13-.31.1-.21.1-3.11a3.92,3.92,0,0,0-3.6-3.9Z"/></g><path class="cls-3" d="M29.58,46.94a2.9,2.9,0,0,0-2.15.5c1.68,1.72,1.4,3.43,1.4,6.07,0,.14-.23.1,2,.1a1,1,0,0,0,1-1v-3.5a2.2,2.2,0,0,0-2.2-2.19Z"/></g></g></svg>