<svg xmlns="http://www.w3.org/2000/svg" viewBox="0 0 92.37 44.57"><title>simple-plan</title><g id="Camada_2" data-name="Camada 2"><g id="Camada_2-2" data-name="Camada 2"><path d="M16,13.49H2.1A2.11,2.11,0,0,0,0,15.59V42.47a2.11,2.11,0,0,0,2.1,2.1H16a2.11,2.11,0,0,0,2.1-2.1V15.59a2.11,2.11,0,0,0-2.1-2.1ZM6.81,15h4.43a.25.25,0,0,1,0,.5H6.81a.26.26,0,0,1-.26-.25A.25.25,0,0,1,6.81,15ZM9,43.52a1.05,1.05,0,1,1,1-1.05,1,1,0,0,1-1,1.05Zm7.56-2.84H1.46V16.82H16.59Z"/><path d="M29.88,40.11H85.77A2.1,2.1,0,0,0,87.86,38V2.1A2.09,2.09,0,0,0,85.77,0H29.88a2.1,2.1,0,0,0-2.09,2.1V38a2.1,2.1,0,0,0,2.09,2.09Zm-.3-38a.3.3,0,0,1,.3-.3H85.77a.3.3,0,0,1,.3.3V38a.3.3,0,0,1-.3.3H29.88a.3.3,0,0,1-.3-.3ZM92.37,41.72v1.67a.8.8,0,0,1-.8.81H24.09a.8.8,0,0,1-.8-.81V41.72H51.66a1.13,1.13,0,0,0,1.08.8H62.92a1.13,1.13,0,0,0,1.08-.8Z"/></g></g></svg>